<svg width="36" height="36" viewBox="0 0 37 36" fill="none" xmlns="http://www.w3.org/2000/svg"> <path d="M18.6683 35.976C21.4249 35.5843 23.8415 32.7072 25.3622 28.4583C23.1639 27.966 20.9206 27.7017 18.6683 27.6703V35.976Z" fill="#333333"/> <path d="M23.0725 35.3C23.2355 35.2529 23.3978 35.2054 23.5589 35.1531C23.6948 35.1094 23.8288 35.0622 23.9628 35.0154C24.1213 34.9606 24.2792 34.9043 24.4365 34.8445C24.5705 34.7936 24.7033 34.7395 24.8363 34.6854C24.9899 34.6209 25.1431 34.5567 25.2947 34.4922C25.4271 34.434 25.5586 34.373 25.6901 34.3117C25.8389 34.2415 25.9871 34.1701 26.134 34.0959C26.2629 34.0301 26.3916 33.9631 26.5206 33.8942C26.665 33.8168 26.8084 33.7379 26.9509 33.6567C27.0799 33.5837 27.2042 33.5104 27.3297 33.4349C27.4693 33.3491 27.6084 33.2632 27.7465 33.1773C27.8701 33.0987 27.9934 33.0188 28.1152 32.9363C28.2511 32.8448 28.3851 32.7495 28.5184 32.6542C28.6383 32.5683 28.7575 32.4827 28.8745 32.3965C29.0035 32.2971 29.1356 32.1943 29.2649 32.0911C29.3798 31.9995 29.4943 31.9086 29.6072 31.8146C29.7359 31.7076 29.8592 31.5969 29.9841 31.4862C30.0935 31.389 30.2036 31.2927 30.3106 31.193C30.4336 31.0782 30.5534 30.9592 30.6733 30.8413C30.7771 30.7387 30.8822 30.6378 30.9838 30.5327C31.0026 30.5132 31.0206 30.4921 31.0401 30.472C29.6349 29.7463 28.1548 29.1766 26.6256 28.7733C25.8304 31.3094 24.4151 33.6076 22.5082 35.4592C22.5604 35.4457 22.6126 35.4347 22.6648 35.4212C22.8026 35.3825 22.9379 35.34 23.0725 35.3Z" fill="#333333"/> <path d="M36.0483 18.6321H28.3236C28.2943 21.6482 27.8568 24.6464 27.0228 27.5452C28.7234 27.9995 30.3646 28.6525 31.9123 29.4909C34.4534 26.4282 35.908 22.6096 36.0483 18.6321Z" fill="#333333"/> <path d="M18.6683 17.3436H27.0351C27.0024 14.4342 26.5755 11.5426 25.7667 8.74763C23.4369 9.27895 21.0575 9.56269 18.6683 9.59415V17.3436Z" fill="#333333"/> <path d="M18.6683 0V8.30568C20.9206 8.27391 23.1639 8.00998 25.3622 7.51767C23.8415 3.26873 21.4249 0.391644 18.6683 0Z" fill="#333333"/> <path d="M18.6683 26.3817C21.0575 26.4134 23.4369 26.6972 25.7667 27.2285C26.5755 24.4335 27.0024 21.5416 27.0351 18.6321H18.6683V26.3817Z" fill="#333333"/> <path d="M31.9123 6.48489C30.3646 7.32322 28.7234 7.97628 27.0228 8.43052C27.8568 11.3293 28.2943 14.3275 28.3236 17.3436H36.0483C35.9077 13.3665 34.4531 9.54789 31.9123 6.48489Z" fill="#333333"/> <path d="M31.0418 5.50757C31.0229 5.48838 31.0049 5.46762 30.9864 5.4478C30.8845 5.34273 30.7788 5.24144 30.675 5.1392C30.5554 5.02124 30.4362 4.90202 30.3129 4.78751C30.2062 4.68811 30.0958 4.59405 29.9863 4.49496C29.8615 4.38423 29.7366 4.27255 29.6082 4.1656C29.4969 4.07154 29.3827 3.98157 29.2694 3.89129C29.1405 3.78685 29.0083 3.68304 28.8756 3.58332C28.7592 3.49556 28.6412 3.41062 28.5226 3.32569C28.388 3.2288 28.2527 3.13223 28.1156 3.04006C27.9951 2.9589 27.8727 2.87962 27.7503 2.80192C27.611 2.71227 27.4719 2.6245 27.3301 2.53957C27.2058 2.46502 27.0803 2.39141 26.9545 2.32C26.8104 2.23758 26.666 2.15768 26.5204 2.07966C26.3914 2.01518 26.2627 1.94503 26.1337 1.88054C25.9856 1.80567 25.8361 1.73363 25.683 1.66285C25.554 1.60151 25.4231 1.54174 25.2904 1.48355C25.1378 1.41591 24.9836 1.35489 24.8298 1.2904C24.6971 1.23629 24.5649 1.18281 24.4309 1.13185C24.2746 1.07209 24.116 1.01609 23.9575 0.961355C23.8235 0.914169 23.6895 0.867298 23.5536 0.823258C23.3925 0.771038 23.2315 0.723538 23.066 0.675723C22.932 0.636401 22.7973 0.59645 22.6618 0.560589C22.6099 0.546433 22.557 0.535423 22.5048 0.521896C24.4118 2.37348 25.8267 4.67143 26.6223 7.20784C28.153 6.80456 29.6353 6.23455 31.0418 5.50757Z" fill="#333333"/> <path d="M0 17.3436H7.72466C7.75392 14.3275 8.19149 11.3293 9.02511 8.43052C7.32484 7.97659 5.68371 7.32354 4.13601 6.48489C1.59489 9.54757 0.1403 13.3665 0 17.3436Z" fill="#333333"/> <path d="M17.3799 35.976V27.6703C15.1276 27.702 12.8844 27.966 10.6861 28.4583C12.2064 32.7072 14.6233 35.5843 17.3799 35.976Z" fill="#333333"/> <path d="M17.3797 18.6321H9.01295C9.04567 21.5416 9.47223 24.4335 10.2813 27.2285C12.6111 26.6969 14.9902 26.4131 17.3797 26.3817V18.6321Z" fill="#333333"/> <path d="M17.3799 0C14.6233 0.391644 12.2064 3.26873 10.6861 7.51767C12.8844 8.01029 15.1276 8.27422 17.3799 8.30568V0Z" fill="#333333"/> <path d="M17.3797 9.59415C14.9905 9.56269 12.6111 9.27895 10.2813 8.74763C9.47223 11.5426 9.04567 14.4342 9.01295 17.3436H17.3797V9.59415Z" fill="#333333"/> <path d="M13.5382 0.52121C13.486 0.534736 13.4338 0.545746 13.3815 0.559273C13.245 0.595764 13.1104 0.636344 12.9745 0.675665C12.8128 0.722851 12.6524 0.770352 12.49 0.821942C12.3532 0.866297 12.2186 0.913483 12.0839 0.960354C11.9263 1.01603 11.7684 1.0714 11.6124 1.13054C11.4777 1.18213 11.345 1.23561 11.2116 1.29034C11.0584 1.35483 10.9049 1.41932 10.7536 1.48349C10.6208 1.54169 10.4897 1.60271 10.3582 1.66405C10.2094 1.7342 10.0612 1.80561 9.91431 1.87985C9.78533 1.9456 9.65636 2.01292 9.5277 2.08149C9.38331 2.15888 9.24018 2.23815 9.09799 2.31931C8.96901 2.39135 8.84224 2.46527 8.71798 2.54077C8.578 2.62508 8.43958 2.71221 8.3018 2.79841C8.17786 2.87768 8.05486 2.95758 7.93312 3.04C7.79722 3.13154 7.66322 3.22686 7.52984 3.32217C7.40998 3.40805 7.29076 3.49361 7.17342 3.58012C7.04162 3.67921 6.91579 3.78239 6.78304 3.88526C6.66853 3.9768 6.55308 4.06771 6.44109 4.1624C6.31212 4.26872 6.18975 4.37882 6.06549 4.48892C5.95539 4.58707 5.84435 4.68239 5.73676 4.78399C5.61439 4.89818 5.49517 5.01678 5.37563 5.13443C5.27182 5.23698 5.16613 5.33827 5.0642 5.44365C5.04564 5.46316 5.02771 5.48455 5.00821 5.50437C6.4131 6.2304 7.89348 6.8001 9.42263 7.20338C10.2179 4.66855 11.6322 2.37185 13.5382 0.52121Z" fill="#333333"/> <path d="M5.37297 30.8367C5.49282 30.9546 5.61204 31.0739 5.73504 31.1887C5.84199 31.2878 5.95209 31.3818 6.06188 31.4809C6.18677 31.592 6.31165 31.7033 6.44 31.8103C6.55136 31.9037 6.66492 31.994 6.77879 32.0846C6.90777 32.189 7.03643 32.2928 7.17295 32.3932C7.28903 32.4803 7.407 32.5646 7.52496 32.6512C7.6596 32.7477 7.79549 32.8443 7.93265 32.9371C8.05313 33.0183 8.1755 33.0975 8.29787 33.1756C8.43722 33.2649 8.57627 33.3527 8.71814 33.4376C8.84239 33.5125 8.96791 33.5858 9.09374 33.6575C9.23781 33.7399 9.3822 33.8198 9.52785 33.8975C9.65651 33.962 9.78549 34.0321 9.91446 34.0966C10.0626 34.1715 10.212 34.2435 10.3652 34.3146C10.4942 34.3753 10.6251 34.4351 10.7578 34.4936C10.9104 34.5613 11.0642 34.6223 11.2184 34.6868C11.3511 34.7409 11.4832 34.7944 11.6172 34.8453C11.7736 34.9054 11.9321 34.9614 12.0907 35.0161C12.2247 35.063 12.3587 35.1102 12.4946 35.1539C12.6557 35.2061 12.8167 35.254 12.9822 35.3015C13.1162 35.3408 13.2508 35.3807 13.3861 35.4169C13.4383 35.4311 13.4912 35.4421 13.5434 35.4556C11.6364 33.6037 10.2215 31.3057 9.42593 28.7693C7.89679 29.1729 6.4164 29.7426 5.01152 30.4689C5.03039 30.4881 5.04833 30.5089 5.0672 30.5287C5.16377 30.6331 5.2679 30.7344 5.37297 30.8367Z" fill="#333333"/> <path d="M4.13601 29.4909C5.68371 28.6525 7.32484 27.9995 9.02511 27.5452C8.19149 24.6464 7.75392 21.6482 7.72466 18.6321H0C0.140614 22.6093 1.59489 26.4279 4.13601 29.4909Z" fill="#333333"/> </svg>